# xmcd CD database file
#
# Track frame offsets:
#	150
#	12503
#	23154
#	38236
#	61173
#	79196
#	91253
#	107726
#	119928
#	134025
#	149066
#	166155
#
# Disc length: 2404 seconds
#
# Revision: 0
# Processed by: cddbd v1.5.1PL2 Copyright (c) Steve Scherf et al.
# Submitted via: CDex 1.51
#
DISCID=ab09620c
DTITLE=Marcia Ball, Lou Ann Barton and Angela Strehli  - Dreams Come True
DYEAR=1990
DGENRE=Blues
TTITLE0=A Fool In Love
TTITLE1=Good Rockin' Daddy
TTITLE2=It Hurts To Be In Love
TTITLE3=Love, Sweet, Love
TTITLE4=Gonna Make It
TTITLE5=You Can If You Think You Can
TTITLE6=I Idolize You
TTITLE7=Dreams Come True
TTITLE8=Bad Thing
TTITLE9=Turn The Lock On Love
TTITLE10=Something's Got A Hold On Me
TTITLE11=Snake Dance
EXTD=YEAR: 1990
EXTT0=
EXTT1=
EXTT2=
EXTT3=
EXTT4=
EXTT5=
EXTT6=
EXTT7=
EXTT8=
EXTT9=
EXTT10=
EXTT11=
PLAYORDER=
